<?xml version="1.0" encoding="utf-8"?>
<!-- Generator: Adobe Illustrator 16.0.0, SVG Export Plug-In . SVG Version: 6.00 Build 0)  -->
<!DOCTYPE svg PUBLIC "-//W3C//DTD SVG 1.1//EN" "http://www.w3.org/Graphics/SVG/1.1/DTD/svg11.dtd">
<svg version="1.1" id="Capa_1" xmlns="http://www.w3.org/2000/svg" xmlns:xlink="http://www.w3.org/1999/xlink" x="0px" y="0px"
	 width="300px" height="300px" viewBox="0 0 300 300" enable-background="new 0 0 300 300" xml:space="preserve">
<g>
	<path fill="#20244C" d="M44.372,152.39c-4.06,0-7.316-0.086-10.53,0.021c-2.865,0.115-4.197-1.217-4.262-4.018
		c-0.021-0.994,0-1.988,0-2.973c0-41.963-0.021-83.957,0-125.974c0-6.396,0.296-6.682,6.703-6.682c51.32,0,102.663,0,154.004,0
		c6.154,0,6.397,0.222,6.397,6.513c0,42.291,0,84.551,0,126.842c0,6.195-0.117,6.279-6.545,6.279
		c-29.964,0-59.959-0.062-89.911,0.139c-3.023,0.02-6.407,1.057-9.008,2.611c-14.4,8.701-28.578,17.73-42.926,26.516
		c-1.513,0.889-3.553,0.889-5.35,1.332c-0.296-1.711-1.026-3.445-0.91-5.139C42.681,169.581,43.527,161.314,44.372,152.39z
		 M75.16,92.771c6.132-0.043,11.102-5.033,11.007-11.039c-0.096-5.975-5.329-11.123-11.208-11.006
		c-6.089,0.105-10.847,5.031-10.826,11.164C64.165,88.138,68.891,92.812,75.16,92.771z M112.948,92.79
		c6.101,0.086,11.186-4.693,11.334-10.721c0.169-5.92-4.863-11.154-10.848-11.312c-5.984-0.211-11.08,4.748-11.186,10.805
		C102.1,87.781,106.783,92.706,112.948,92.79z M162.27,81.605c-0.127-6.068-5.181-10.996-11.186-10.869
		c-5.996,0.139-10.891,5.244-10.754,11.314c0.106,6.152,5.033,10.867,11.177,10.74C157.713,92.663,162.375,87.822,162.27,81.605z"/>
	<path fill="#20244C" d="M103.305,163.999c3.923,0,7.274,0,10.647,0c1.11,0,2.198,0,3.721,0c0,26.221,0,52.018,0,78.365
		c2.072,0,3.732,0,5.351,0c27.172,0,54.334-0.064,81.484,0.084c2.644,0.043,5.562,0.889,7.845,2.221
		c8.648,5.096,17.086,10.553,25.607,15.838c1.058,0.635,2.157,1.205,3.658,2.008c-0.635-6.893-1.227-13.277-1.86-20.141
		c5.562,0,10.604,0,15.901,0c0-37.004,0-73.586,0-110.633c-15.542,0-31.169,0-47.134,0c0-5.055,0-9.6,0-14.305
		c0.508-0.158,1.036-0.359,1.544-0.359c18.545-0.021,37.068,0,55.592-0.086c3.573,0,4.747,1.564,4.747,4.885
		c-0.021,43.242-0.042,86.529,0.021,129.793c0,3.637-1.417,5.148-5.096,4.883c-3.065-0.211-6.175-0.041-9.728-0.041
		c0.804,8.838,1.671,17.234,2.306,25.648c0.138,1.65-0.613,3.375-0.951,5.076c-1.776-0.443-3.828-0.465-5.329-1.396
		c-14.549-8.922-28.99-18.078-43.592-26.961c-2.263-1.352-5.223-2.262-7.855-2.262c-30.259-0.148-60.519-0.105-90.799-0.105
		c-6.049,0-6.069-0.021-6.069-6.217c0-27.15,0-54.303,0-81.463C103.305,167.456,103.305,166.029,103.305,163.999z"/>
	<path fill="#20244C" d="M159.7,186.825c-0.116,6.068-5.17,10.953-11.229,10.869c-6.079-0.117-10.869-5.127-10.783-11.229
		c0.084-6.176,4.968-10.912,11.133-10.826C154.921,175.734,159.807,180.745,159.7,186.825z"/>
	<path fill="#20244C" d="M235.866,186.825c-0.105,6.143-5.074,10.975-11.153,10.869c-5.974-0.139-11.049-5.35-10.922-11.25
		c0.18-6.09,5.19-10.891,11.323-10.805C231.237,175.734,235.962,180.618,235.866,186.825z"/>
	<path fill="#20244C" d="M197.72,186.751c-0.084,6.195-4.926,11.006-11.059,10.943c-5.984-0.043-11.038-5.191-10.996-11.145
		c0.063-6.006,5.139-10.953,11.187-10.932C193.026,175.671,197.762,180.525,197.72,186.751z"/>
</g>
</svg>
