<?xml version="1.0" encoding="utf-8"?>
<!-- Generator: Adobe Illustrator 16.0.0, SVG Export Plug-In . SVG Version: 6.00 Build 0)  -->
<!DOCTYPE svg PUBLIC "-//W3C//DTD SVG 1.1//EN" "http://www.w3.org/Graphics/SVG/1.1/DTD/svg11.dtd">
<svg version="1.1" id="Capa_1" xmlns="http://www.w3.org/2000/svg" xmlns:xlink="http://www.w3.org/1999/xlink" x="0px" y="0px"
	 width="300px" height="262px" viewBox="0 0 300 262" enable-background="new 0 0 300 262" xml:space="preserve">
<g>
	<path fill="#20244C" d="M57.213,218.381c0,3.788,0.049,7.258,0,10.717c-0.22,11.691-9.054,20.746-20.215,20.795
		c-11.424,0.049-20.282-8.992-20.307-20.967c-0.067-25.384-0.171-50.755,0.037-76.119c0.098-11.484,2.523-22.629,6.561-33.398
		c1.356-3.622,2.743-7.239,4.423-11.705c-2.492,0-4.533,0.037-6.573-0.006C11.909,107.508,4.938,100.561,5,91.673
		c0.049-8.889,7.111-15.706,16.409-15.792c5.102-0.049,10.215-0.152,15.304,0.062c2.614,0.116,3.708-0.88,4.582-3.25
		c3.567-9.677,7.489-19.231,11.045-28.921c5.541-15.089,16.152-23.868,31.963-26.61c30.313-5.229,60.847-6.177,91.453-4.246
		c14.418,0.91,28.829,2.719,43.094,5.101c13.574,2.279,22.77,10.832,27.871,23.569c4.129,10.318,8.1,20.71,11.973,31.132
		c0.881,2.364,1.968,3.342,4.582,3.231c5.09-0.226,10.203-0.128,15.291-0.049c9.348,0.122,16.373,6.909,16.435,15.786
		c0.056,9.011-7.062,15.89-16.562,16.018c-1.846,0.024-3.715,0-6.17,0c1.44,3.788,2.65,7.001,3.885,10.215
		c4.74,12.39,7.209,25.22,7.197,38.513c-0.043,24.309,0.012,48.615-0.024,72.918c-0.03,8.075-3.673,14.246-10.722,18.076
		c-6.935,3.764-14.021,3.385-20.612-0.953c-6.151-4.057-9.103-10.023-9.212-17.373c-0.049-3.471,0-6.935,0-10.717
		C180.905,218.381,119.344,218.381,57.213,218.381z M149.839,102.064c29.129,0,58.251,0.019,87.379-0.018
		c6.807-0.007,7.881-1.644,5.522-8.046c-4.851-13.189-9.701-26.386-14.563-39.575c-2.15-5.822-4.619-7.545-10.802-7.545
		c-19.194-0.012-38.383-0.006-57.571-0.006c-25.909,0-51.794,0.03-77.696-0.024c-4.49-0.006-7.966,1.49-9.579,5.816
		c-5.4,14.423-10.728,28.865-15.981,43.338c-1.35,3.714-0.055,5.534,3.922,5.962c1.332,0.141,2.688,0.098,4.021,0.098
		C92.952,102.064,121.396,102.064,149.839,102.064z M55.394,168.641c8.932,0.159,16.293-6.971,16.323-15.871
		c0.037-8.57-6.849-15.64-15.45-15.854c-9.065-0.244-16.359,6.652-16.5,15.585C39.638,161.212,46.676,168.488,55.394,168.641z
		 M244.525,136.893c-8.87-0.117-16.023,6.701-16.243,15.492c-0.202,8.87,6.987,16.227,15.907,16.262
		c8.772,0.043,15.927-6.969,16.043-15.735C260.354,144.198,253.316,137.008,244.525,136.893z"/>
</g>
</svg>
