<?xml version="1.0" encoding="utf-8"?>
<!-- Generator: Adobe Illustrator 16.0.0, SVG Export Plug-In . SVG Version: 6.00 Build 0)  -->
<!DOCTYPE svg PUBLIC "-//W3C//DTD SVG 1.1//EN" "http://www.w3.org/Graphics/SVG/1.1/DTD/svg11.dtd">
<svg version="1.1" id="Capa_1" xmlns="http://www.w3.org/2000/svg" xmlns:xlink="http://www.w3.org/1999/xlink" x="0px" y="0px"
	 width="300px" height="300px" viewBox="0 0 300 300" enable-background="new 0 0 300 300" xml:space="preserve">
<g>
	<path fill="#20244C" d="M265.441,84.895c0,14.552,0.673,29.144-0.137,43.668c-2.048,36.932-13.945,70.642-34.586,101.228
		c-15.576,23.094-34.709,42.604-58.92,56.736c-3.72,2.184-7.734,3.772-11.533,5.834c-6.953,3.812-13.636,3.221-20.776-0.026
		c-21.153-9.62-38.534-24.063-53.76-41.312c-26.542-30.059-42.967-65.021-49.191-104.594c-1.645-10.495-2.318-21.181-2.466-31.824
		c-0.337-25.357-0.054-50.742-0.188-76.085c0-3.046,0.728-4.312,3.935-5.134c36.432-9.243,72.784-18.688,109.189-27.998
		c1.832-0.472,3.988-0.54,5.848-0.054c36.514,9.311,73,18.809,109.541,28.106c3.045,0.741,3.731,2.021,3.719,4.904
		c-0.107,15.495-0.055,31.029-0.055,46.538C265.857,84.895,265.655,84.895,265.441,84.895z M233.764,109.148
		c0.107-0.579,0.242-1.118,0.338-1.617c-1.442-0.62-2.885-1.684-4.326-1.711c-18.215-0.377-36.42-0.728-54.621-0.781
		c-3.207-0.027-4.366-1.199-5.309-3.988c-5.578-16.168-11.318-32.282-16.978-48.396c-0.646-1.9-0.876-3.746-3.826-3.706
		c-2.735,0.055-2.856,1.913-3.45,3.611c-5.767,16.384-11.587,32.768-17.219,49.151c-0.849,2.479-2.008,3.274-4.608,3.274
		c-18.081,0.014-36.149,0.175-54.244,0.418c-1.401,0.026-2.803,1.077-4.23,1.67c0.781,1.361,1.186,3.14,2.316,3.988
		c14.216,10.981,28.47,21.841,42.887,32.552c2.547,1.873,2.884,3.477,1.98,6.347c-5.174,16.572-10.064,33.239-15.238,49.771
		c-1.051,3.396-0.62,5.35,3.032,6.226c16.249-11.276,32.511-22.608,48.882-34.034c1.32,0.891,2.533,1.671,3.731,2.533
		c14.079,9.781,28.104,19.537,42.146,29.386c1.644,1.132,2.884,1.94,4.984,0.499c2.211-1.441,1.563-2.99,0.997-4.852
		c-4.862-15.952-9.472-32.014-14.618-47.898c-1.429-4.365-0.593-6.588,3.06-9.216C204.363,131.514,219.01,120.25,233.764,109.148z"
		/>
</g>
</svg>
