<?xml version="1.0" encoding="utf-8"?>
<!-- Generator: Adobe Illustrator 16.0.0, SVG Export Plug-In . SVG Version: 6.00 Build 0)  -->
<!DOCTYPE svg PUBLIC "-//W3C//DTD SVG 1.1//EN" "http://www.w3.org/Graphics/SVG/1.1/DTD/svg11.dtd">
<svg version="1.1" id="Capa_1" xmlns="http://www.w3.org/2000/svg" xmlns:xlink="http://www.w3.org/1999/xlink" x="0px" y="0px"
	 width="300px" height="300px" viewBox="0 0 300 300" enable-background="new 0 0 300 300" xml:space="preserve">
<path fill="#193256" d="M243.246,220.279c1.268-1.744,2.289-3.243,3.352-4.715c21.205-29.954,29.096-63.083,23.346-99.293
	C258.304,42.899,186.445-6.979,113.508,7.507C42.617,21.599-3.991,89.165,7.988,160.493
	c13.982,83.32,103.189,132.681,181.236,100.219c3.066-1.28,5.588-1.39,8.764-0.218c30.363,11.12,60.82,22.104,91.238,33.116
	c1.213,0.436,2.467,0.735,4.66,1.39C276.58,269.462,259.926,244.864,243.246,220.279z M142.4,45.379
	c11.092,0.19,19.787,9.117,19.705,20.251c-0.082,11.011-9.104,19.924-20.088,19.91c-11.283-0.041-20.209-9.239-20.006-20.592
	C122.23,53.924,131.279,45.215,142.4,45.379z M177.314,228.892c-22.322,0-44.236,0-66.504,0c0-11.066,0-21.887,0-33.402
	c5.396,0,10.711,0,16.299,0c0-19.869,0-39.03,0-58.872c-5.465,0-10.615,0-16.189,0c0-11.393,0-22.159,0-33.334
	c16.408,0,32.814,0,49.877,0c0,30.499,0,60.944,0,91.961c5.807,0,10.943,0,16.518,0
	C177.314,207.115,177.314,217.907,177.314,228.892z"/>
</svg>
