<?xml version="1.0" encoding="utf-8"?>
<!-- Generator: Adobe Illustrator 16.0.0, SVG Export Plug-In . SVG Version: 6.00 Build 0)  -->
<!DOCTYPE svg PUBLIC "-//W3C//DTD SVG 1.1//EN" "http://www.w3.org/Graphics/SVG/1.1/DTD/svg11.dtd">
<svg version="1.1" id="Capa_1" xmlns="http://www.w3.org/2000/svg" xmlns:xlink="http://www.w3.org/1999/xlink" x="0px" y="0px"
	 width="300px" height="300px" viewBox="0 0 300 300" enable-background="new 0 0 300 300" xml:space="preserve">
<path fill="#7098D0" d="M196.672,191.191c-38.18,54.722-43.692,100.949-43.692,100.949c-0.847,3.812-4.223,3.812-5.09,0
	c0,0-7.191-46.229-44.529-100.949c-30.967-43.249-44.972-60.21-44.972-95.423C58.389,45.305,98.704,5,149.589,5
	c50.475,0,92.022,40.293,92.022,90.768C241.623,130.981,214.467,165.316,196.672,191.191z M185.647,97.468
	c0-19.507-15.272-34.779-35.203-34.779c-18.649,0-34.354,15.272-34.354,34.779c0,19.508,15.717,36.047,34.354,36.047
	C170.373,133.515,185.647,116.976,185.647,97.468z"/>
</svg>
