<?xml version="1.0" encoding="utf-8"?>
<!-- Generator: Adobe Illustrator 16.0.0, SVG Export Plug-In . SVG Version: 6.00 Build 0)  -->
<!DOCTYPE svg PUBLIC "-//W3C//DTD SVG 1.1//EN" "http://www.w3.org/Graphics/SVG/1.1/DTD/svg11.dtd">
<svg version="1.1" id="Capa_1" xmlns="http://www.w3.org/2000/svg" xmlns:xlink="http://www.w3.org/1999/xlink" x="0px" y="0px"
	 width="350px" height="350px" viewBox="0 0 350 350" enable-background="new 0 0 350 350" xml:space="preserve">
<g>
	<path fill="#20244C" d="M24.583,234.839c12.062,26.311,38.615,52.066,75.372,51.611c30.659-0.38,63.379-22.81,73.69-51.611
		C123.786,246.999,74.412,247.515,24.583,234.839z"/>
	<path fill="#20244C" d="M133.804,63.544c0,29.973,0,59.881,0,89.792c-0.563-0.339-1.129-0.678-1.691-1.018
		c-8.209-4.959-16.778-9.348-25.386-13.647c-4.854-2.401-10.185-2.266-15.085-0.058c-5.671,2.548-11.322,5.223-16.633,8.384
		c-20.552,12.245-40.677,25.19-63.739,32.546c-6.43,2.08-8.239,9.901-3.901,15.143c2.626,3.163,5.651,6.081,8.773,8.784
		c4.844,4.163,8.492,8.803,8.346,15.592c0.943,0.264,1.721,0.545,2.5,0.73c32.352,7.1,65.003,11.147,98.113,7.332
		c12.388-1.427,24.692-3.646,36.987-5.796c81.435,0,82.904,0,182.914,0c0-52.61,0-104.931,0-157.785
		C234.416,63.544,244.239,63.544,133.804,63.544z M117.678,185.828c-0.993,7.879-3.89,14.988-9.221,20.99
		c-2.452,2.771-5.447,4.718-9.27,4.912c-3.715-0.175-6.584-1.956-8.938-4.504c-5.612-6.069-8.589-13.373-9.649-21.458
		c-0.106-0.837-0.019-1.955,0.466-2.625c4.349-6.089,15.777-10.494,22.819-7.945c4.629,1.69,8.754,4.891,12.975,7.613
		C117.522,183.242,117.814,184.835,117.678,185.828z M333.072,209.367c-90.513,0-87.484,0-156.411,0
		c1.563-2.386,3.612-4.509,5.786-6.615c2.975-2.84,5.613-6.088,7.976-9.474c3.765-5.33,1.702-12.1-4.513-14.142
		c-14.433-4.699-27.764-11.574-40.784-19.097c0-28.348,0-56.648,0-85.075c102.645,0,85.137,0,187.948,0
		C333.072,119.725,333.072,164.39,333.072,209.367z"/>
	<path fill="#20244C" d="M177.386,158.486c6.586,1.83,11.041-0.021,14.202-5.545c0.991-1.712,2.937-4.017,4.532-4.094
		c7.509-0.448,15.026-0.205,23.101-0.205c-5.079,14.103-9.845,27.43-14.648,40.735c5.388,1.586,8.675,0.118,11.729-4.192
		c8.065-11.312,16.761-22.215,24.941-33.46c2.109-2.897,4.357-3.871,7.84-3.753c7.771,0.242,15.591,0.389,23.353-0.06
		c3.648-0.223,7.383-1.527,10.816-3.005c2.88-1.197,2.977-3.793,0.039-5.116c-3.541-1.565-7.393-3.112-11.167-3.355
		c-7.916-0.515-15.912-0.341-23.859-0.086c-3.199,0.097-5.146-1.002-7.021-3.493c-8.462-11.255-17.313-22.226-25.503-33.675
		c-3.113-4.357-6.498-4.514-11.225-3.472c4.942,13.841,9.755,27.341,14.766,41.378c-6.353,0-12.169-0.41-17.818,0.146
		c-4.972,0.457-8.308-1.246-10.574-5.359c-2.977-5.477-7.587-6.05-13.462-4.64c1.956,4.046,3.591,7.966,5.71,11.633
		c1.595,2.791,1.479,5.165,0.028,7.869C181.103,150.588,179.283,154.576,177.386,158.486z"/>
	<path fill="#20244C" d="M305.462,176.208c0-5.456,0-10.602,0-15.787c-2.549,0-4.648,0-7.158,0c0,5.563,0,10.603,0,15.787
		C300.909,176.208,303.146,176.208,305.462,176.208z"/>
	<path fill="#20244C" d="M305.608,107.926c-2.402,0-4.64,0-7.305,0c0,5.447,0,10.505,0,15.7c2.558,0,4.813,0,7.305,0
		C305.608,118.316,305.608,113.287,305.608,107.926z"/>
	<path fill="#20244C" d="M305.569,134.559c-2.695,0-5.059,0-7.372,0c0,5.3,0,10.202,0,15.388c2.487,0,4.764,0,7.372,0
		C305.569,144.519,305.569,139.491,305.569,134.559z"/>
	<path fill="#20244C" d="M305.588,81.48c-2.5,0-4.757,0-7.267,0c0,5.594,0,10.622,0,15.562c2.636,0,4.873,0,7.267,0
		C305.588,91.723,305.588,86.704,305.588,81.48z"/>
	<path fill="#20244C" d="M305.529,187.063c-2.616,0-4.884,0-7.352,0c0,5.154,0,10.058,0,15.428c2.702,0,5.086,0,7.352,0
		C305.529,197.062,305.529,192.025,305.529,187.063z"/>
</g>
</svg>
