<?xml version="1.0" encoding="utf-8"?>
<!-- Generator: Adobe Illustrator 16.0.0, SVG Export Plug-In . SVG Version: 6.00 Build 0)  -->
<!DOCTYPE svg PUBLIC "-//W3C//DTD SVG 1.1//EN" "http://www.w3.org/Graphics/SVG/1.1/DTD/svg11.dtd">
<svg version="1.1" id="Capa_1" xmlns="http://www.w3.org/2000/svg" xmlns:xlink="http://www.w3.org/1999/xlink" x="0px" y="0px"
	 width="300px" height="300px" viewBox="0 0 300 300" enable-background="new 0 0 300 300" xml:space="preserve">
<g>
	<path fill="#20244C" d="M35.172,161.441c0.189-10.505-5.436-17.715-12.927-24.164c-4.844-4.154-9.505-8.667-13.575-13.589
		c-6.724-8.104-3.915-20.256,6.027-23.431c35.71-11.386,66.88-31.444,98.69-50.398c8.23-4.914,16.976-9.026,25.713-12.976
		c7.632-3.437,15.87-3.683,23.382,0.07c13.308,6.64,26.586,13.476,39.33,21.15c26.677,16.06,53.445,31.774,83.291,41.526
		c9.59,3.147,12.808,13.609,6.999,21.883c-3.676,5.224-7.787,10.251-12.363,14.68c-6.858,6.632-12.927,13.392-13.462,23.572
		c-0.043,0.965-1.943,2.408-3.154,2.605c-24.023,4.013-47.976,8.772-72.16,11.554c-51.271,5.879-101.83-0.359-151.925-11.364
		C37.819,162.285,36.636,161.863,35.172,161.441z M150.823,150.091c5.929-0.268,10.533-3.338,14.37-7.646
		c8.21-9.266,12.729-20.271,14.265-32.472c0.183-1.528-0.254-4.014-1.281-4.675c-6.52-4.218-12.898-9.139-20.073-11.766
		c-10.913-3.964-28.613,2.845-35.345,12.301c-0.732,1.014-0.887,2.731-0.718,4.041c1.661,12.532,6.266,23.818,14.897,33.197
		C140.614,147.049,145.063,149.823,150.823,150.091z"/>
	<path fill="#20244C" d="M266.1,185.886c-15.975,44.561-66.591,79.307-114.08,79.884c-56.96,0.697-98.07-39.188-116.735-79.884
		C112.45,205.494,188.92,204.685,266.1,185.886z"/>
</g>
</svg>
