<?xml version="1.0" encoding="utf-8"?>
<!-- Generator: Adobe Illustrator 16.0.0, SVG Export Plug-In . SVG Version: 6.00 Build 0)  -->
<!DOCTYPE svg PUBLIC "-//W3C//DTD SVG 1.1//EN" "http://www.w3.org/Graphics/SVG/1.1/DTD/svg11.dtd">
<svg version="1.1" id="Capa_1" xmlns="http://www.w3.org/2000/svg" xmlns:xlink="http://www.w3.org/1999/xlink" x="0px" y="0px"
	 width="300px" height="290.5px" viewBox="0 0 300 290.5" enable-background="new 0 0 300 290.5" xml:space="preserve">
<g>
	<path fill="#20244C" d="M266.902,260.145c-78.471,0-155.395,0-233.401,0c0.634-9.113,0.073-18.244,2.084-26.767
		c5.421-23.051,11.951-45.851,18.03-68.743c0.384-1.431,0.694-2.861,1.097-4.55c-9.868,0-19.39,0.013-28.922,0
		c-14.339-0.013-20.437-5.83-20.772-20.239c-0.329-14.938,4.325-29.068,7.273-43.508C15.58,80.357,25.046,70.57,39.44,63.977
		c25.024-11.465,51.229-18.445,78.367-22.243c40.393-5.65,79.274,2.171,117.56,13.934c11.592,3.57,22.695,8.87,33.808,13.88
		c8.406,3.786,14.12,10.213,16.167,19.581c3.003,13.804,6.555,27.494,9.149,41.374c0.962,5.129,0.413,10.729-0.414,15.97
		c-1.39,8.703-6.938,13.303-15.783,13.485c-10.446,0.213-20.888,0-31.321-0.013c-0.586,0-1.171,0.128-2.158,0.238
		c3.192,10.817,6.445,21.479,9.479,32.198c3.326,11.75,7.176,23.403,9.474,35.354C265.744,238.172,265.891,248.948,266.902,260.145z
		 M145.212,213.793c16.91,0.08,28.338-2.674,38.742-9.167c22.465-14.047,23.787-39.418,2.899-54.894
		c-21.356-15.826-55.933-14.846-76.303,2.146c-15.759,13.139-16.41,33.625-1.279,47.446
		C120.742,209.816,134.704,213.654,145.212,213.793z M202.49,93.856c0.134-0.399,0.279-0.816,0.414-1.216
		c-2.15-1.203-4.221-2.57-6.444-3.558c-11.209-4.97-23.136-6.746-35.233-7.577c-19.564-1.34-38.681,1.011-57.199,7.617
		c-2.448,0.865-4.653,2.437-6.969,3.691c0.171,0.356,0.348,0.694,0.512,1.048C132.548,93.856,167.514,93.856,202.49,93.856z"/>
	<path fill="#20244C" d="M149.111,185.876c-5.549-0.292-11.519-1.791-16.209-6.519c-5.422-5.471-5.33-12.84,0.171-18.213
		c8.442-8.205,25.596-8.182,33.978,0.062c5.422,5.36,5.434,12.798,0.024,18.243C163.078,183.477,156.628,185.889,149.111,185.876z"
		/>
</g>
</svg>
