<?xml version="1.0" encoding="utf-8"?>
<!-- Generator: Adobe Illustrator 16.0.0, SVG Export Plug-In . SVG Version: 6.00 Build 0)  -->
<!DOCTYPE svg PUBLIC "-//W3C//DTD SVG 1.1//EN" "http://www.w3.org/Graphics/SVG/1.1/DTD/svg11.dtd">
<svg version="1.1" id="Capa_1" xmlns="http://www.w3.org/2000/svg" xmlns:xlink="http://www.w3.org/1999/xlink" x="0px" y="0px"
	 width="300.002px" height="300px" viewBox="0 0 300.002 300" enable-background="new 0 0 300.002 300" xml:space="preserve">
<g>
	<path fill="#FFFFFF" d="M150.001,4.997c80.084,0,145,64.922,145,145.003c0,80.087-64.916,145.003-145,145.003
		s-145-64.916-145-145.003C5.001,69.919,69.917,4.997,150.001,4.997z"/>
	<path fill="#E72F4F" d="M150.001,22.943c70.171,0,127.058,56.886,127.058,127.057c0,70.168-56.887,127.061-127.058,127.061
		S22.944,220.168,22.944,150C22.944,79.829,79.83,22.943,150.001,22.943z"/>
	<g>
		<path fill="#FFFFFF" d="M182.195,243.913c-4.774,0-9.679-0.763-14.577-2.271c-10.909-4.412-19.997-10.67-28.15-19.253
			c-26.954-28.373-42.521-59.04-47.592-93.769c-2.096-14.451-1.52-28.443,1.714-41.596c2.522-10.341,9.128-18.555,19.632-24.41
			c5.734-3.162,12.266-5.258,19.985-6.417c1.562-0.229,3.181-0.24,4.737-0.065c7.356,0.791,9.781,2.987,11.261,10.215
			c2.289,11.149,4.562,22.32,6.796,33.488c1.274,6.341-0.597,10.258-6.264,13.091c-2.597,1.296-5.311,2.354-8.03,3.403l-2.938,1.15
			c-1.944,0.788-3.91,1.554-5.877,2.316l-1.993,0.775c-1.295,0.511-1.889,1.067-1.941,3.003c-0.157,5.726,0.951,11.528,3.385,17.733
			c6.565,16.78,15.872,32.853,28.445,49.14c1.04,1.335,1.514,1.618,1.601,1.661c-0.037-0.03,0.498-0.099,1.95-0.867
			c2.874-1.514,5.624-3.219,8.375-4.929l3.827-2.345c0.461-0.289,1.009-0.628,1.581-0.941c2.609-1.446,5.439-2.793,8.356-2.793
			c4.603,0,7.666,3.218,10.183,6.227c7.083,8.522,14.141,17.038,21.18,25.585c3.594,4.351,3.84,7.6,0.936,12.423
			c-3.649,6.055-9.076,10.929-16.146,14.491C196.151,242.246,189.271,243.913,182.195,243.913z M135.781,64.92
			c-0.422,0-0.844,0.027-1.256,0.089c-6.651,1-12.208,2.767-16.985,5.399c-8.347,4.652-13.358,10.787-15.297,18.737
			c-2.96,12.038-3.479,24.886-1.551,38.192c4.793,32.837,19.592,61.923,45.235,88.91c7.261,7.648,15.334,13.211,24.674,17.008
			c9.039,2.738,19.192,2.222,28.01-2.246c5.63-2.843,9.729-6.485,12.534-11.137c0.362-0.604,0.548-0.967,0.64-1.182
			c-0.117-0.08-0.363-0.419-0.818-0.979c-7.033-8.541-14.078-17.044-21.154-25.548c-2.19-2.628-3.027-3.016-3.335-3.016
			c-0.462,0-1.545,0.29-4.049,1.674c-0.425,0.234-0.825,0.486-1.213,0.732l-3.809,2.338c-2.935,1.815-5.864,3.625-8.903,5.225
			c-7.63,4.043-12.036,0.271-14.756-3.2c-13.112-16.988-22.825-33.78-29.704-51.357c-2.877-7.338-4.185-14.284-3.997-21.231
			c0.151-5.335,2.778-9.156,7.597-11.051l2.021-0.788c1.926-0.747,3.852-1.495,5.766-2.271l3.063-1.2
			c2.459-0.95,4.917-1.895,7.258-3.063c1.452-0.727,1.711-1.12,1.711-1.126c0-0.004,0.16-0.462-0.2-2.24
			c-2.233-11.155-4.501-22.314-6.79-33.455c-0.418-2.049-0.671-2.643-0.784-2.814c0.03,0.092-0.569-0.096-2.717-0.33
			C136.566,64.944,136.175,64.92,135.781,64.92z"/>
	</g>
</g>
</svg>
